<svg id="Layer_1" data-name="Layer 1" xmlns="http://www.w3.org/2000/svg" viewBox="0 0 812.76 108.51"><defs><style>.cls-1{fill:#ff2;}.cls-2{fill:none;}.cls-2,.cls-3,.cls-4,.cls-5,.cls-6{stroke:#000;stroke-width:2px;}.cls-3{fill:#e6ffff;}.cls-3,.cls-4{stroke-linecap:round;stroke-linejoin:round;}.cls-4{fill:#bababa;}.cls-5{fill:#c0ff97;}.cls-6{fill:#8bff48;}.cls-7{fill:#16b200;}</style></defs><title>just-jars-logo-pickles</title><path d="M144.61,72.21c3,3,3,9,7,11,5,2,10,0,14-3q4.5-4.5,3-12c-5-19-14-37-8-56,10,0,19,2,29,2-4,5-3,11-3,16,0,14,3,28,3,42,0,3,1,7-1,11-5,11-14,18-26,21a44.67,44.67,0,0,1-28-3c-6-3-10-9-13-15-1-3-3-7-2-11,8,0,17,0,25-3Z"/><path d="M245.61,104.21c-12,3-26-1-34-11-10-25-13-54-7-80,7,2,13,2,20,2-7,22,0,46,11,66,3,4,8,4,12,3a21.86,21.86,0,0,1,5-3c13-12-1-28-4-42a56.6,56.6,0,0,1,3-26c9,0,19,0,28,2-8,15-2,32,0,48,0,7,2,14-2,21-7,11-18,21-32,20Z"/><path d="M318.61,77.21c2,9,15,10,22,6,4-3,6-9,5-14-2-4-7-4-11-3-14,3-31,6-41-6-8-11-8-27,1-37,6-6,12-9,20-11,18-4,43,1,46,22-9-1-17,1-25,4-3-5-7-9-13-8-7,1-15,6-12,14,0,2,2,5,7,4,13-3,27-6,39,2,12,7,14,24,8,37a21.86,21.86,0,0,0-3,5c-10,11-24,14-37,13-9-1-17-2-24-8-5-5-8-12-9-19a243.69,243.69,0,0,0,27-1Z"/><path d="M390.61,37.21c-7,1-15,2-22,0,2-8,0-16,3-24,3,1,5,2,8,2,22,1,44-4,66-1-2,5-2,11-3,16-9,0-19,0-28,2-1,15,9,27,11,42,1,9,0,18-1,27-8,0-17,3-25,2,8-19-4-38-8-58a22,22,0,0,0-1-8Z"/><path d="M493.61,71.21c1,1,2,1,2,2,1,8,8,13,15,9,8-4,9-13,7-20-7-15-14-34-6-50,9-1,19,1,28,1-8,16-2,34,0,51,1,10,0,21-7,29-6,6-13,10-21,11-9,0-18,1-26-3-10-5-16-16-16-27,8,1,16-1,24-3Z"/><path d="M594.61,11.21a7.58,7.58,0,0,1,2,4c1,16,14,27,21,40a122,122,0,0,1,7,17c0,1,2,2,2,3a84.23,84.23,0,0,1,4,27c-6-2-13-2-20-2,1-4-1-8-1-12-1-2-3-4-3-7-10,1-19,6-29,6-2,5-2,12-7,15-7,3-15,2-22,0h-6c3-5,7-10,10-15,1-2,2-5,3-7,1-4,2-9,3-13v-5c1-3,2-5,2-8,1-13,2-27,8-39a233.56,233.56,0,0,0,26-4Zm-13,58c5-3,10-6,16-7-1-1-1-3-2-4-6-7-12-13-15-21-2,11-1,22,1,32Z"/><path d="M707.61,36.21c0,4,1,9,0,13-2,4-4,8-8,12,3,5,7,10,10,15,1,2,2,5,3,7,2,6,4,12,4,18-7-1-13,1-20,3-1-12-7-24-15-33-2-1-5,1-7,3-2,1-5,1-7,2,4,9,1,19,1,28-9-2-18,0-27-2,2-8,3-16,2-24-3-18-6-36-5-54,1-3,2-5,3-8,0-1-1-2-1-3,15,3,30-1,45,0,5,1,11,2,15,6,4,5,5,11,7,17Zm-45,22c10-2,24-8,20-20-4-10-16-3-24-3,0,8,2,16,4,23Z"/><path d="M749.61,76.21c-1,4,4,8,8,8,5,0,10,1,14-2,5-4,8-11,3-14-8-5-17,0-25,1-12,1-25-5-29-17-3-11-2-24,7-32,13-11,29-11,45-8,10,2,17,11,19,21-8,0-17,1-25,4-2-5-6-8-11-8-7,0-15,4-16,12,0,5,5,7,9,6,15-3,32-5,44,6a21.86,21.86,0,0,1,3,5c3,6,4,14,3,21-1,8-7,13-13,18-12,9-28,8-42,6-12-2-19-14-21-25,9,1,18-2,27-2Z"/><path class="cls-1" d="M152.61,65.21c3,3,2,7,5,9,3,1,6,3,10,2,5-2,8-5,9-10,0-7-2-13-4-19-5-13-7-28-3-41,9,0,19-1,28,2a34,34,0,0,0-3,20c1,16,7,31,2,47-2,8-8,16-16,19-14,4-31,8-42-4-1-2-3-3-5-5-3-5-6-11-5-17a98.63,98.63,0,0,0,24-3Z"/><path class="cls-2" d="M152.61,65.21c3,3,2,7,5,9,3,1,6,3,10,2,5-2,8-5,9-10,0-7-2-13-4-19-5-13-7-28-3-41,9,0,19-1,28,2a34,34,0,0,0-3,20c1,16,7,31,2,47-2,8-8,16-16,19-14,4-31,8-42-4-1-2-3-3-5-5-3-5-6-11-5-17a98.63,98.63,0,0,0,24-3Z"/><path class="cls-1" d="M253.61,97.21c-13,4-28-1-33-13-12-24-14-52-8-78,7,2,13,2,20,2-2,9-3,18-1,28,2,14,4,29,14,40,8,3,19-1,21-10,1-6-2-12-4-18-6-13-6-28-3-42,9-1,19,1,28,1-6,16-2,34,1,50-2,6,0,12-2,18s-5,11-10,14c-7,5-15,8-23,8Z"/><path class="cls-2" d="M253.61,97.21c-13,4-28-1-33-13-12-24-14-52-8-78,7,2,13,2,20,2-2,9-3,18-1,28,2,14,4,29,14,40,8,3,19-1,21-10,1-6-2-12-4-18-6-13-6-28-3-42,9-1,19,1,28,1-6,16-2,34,1,50-2,6,0,12-2,18s-5,11-10,14c-7,5-15,8-23,8Z"/><path class="cls-1" d="M326.61,70.21c4,11,18,10,26,3a7.78,7.78,0,0,0,2-8c-1-4-5-6-8-6-14,1-32,7-43-5-9-11-10-29,1-40,15-13,38-14,55-3a17.69,17.69,0,0,1,9,16c-9-1-17,2-25,4,0-5-5-7-9-8-6-2-11,2-15,5a18.54,18.54,0,0,0-2,7c0,4,4,6,8,6,15-3,34-8,45,7,5,8,7,16,5,25-5,24-32,28-53,24-13-3-20-14-23-26,9,2,18,1,27-1Z"/><path class="cls-2" d="M326.61,70.21c4,11,18,10,26,3a7.78,7.78,0,0,0,2-8c-1-4-5-6-8-6-14,1-32,7-43-5-9-11-10-29,1-40,15-13,38-14,55-3a17.69,17.69,0,0,1,9,16c-9-1-17,2-25,4,0-5-5-7-9-8-6-2-11,2-15,5a18.54,18.54,0,0,0-2,7c0,4,4,6,8,6,15-3,34-8,45,7,5,8,7,16,5,25-5,24-32,28-53,24-13-3-20-14-23-26,9,2,18,1,27-1Z"/><path class="cls-1" d="M399.61,30.21a44.83,44.83,0,0,1-23,0c1-8,1-16,4-24,11,3,23,1,34,0,13-1,26,0,39,1,1,6-3,10-2,16-10,0-19,0-29,2,2,16,8,30,11,46,1,8,2,16-1,23-8,0-16,3-24,2,5-15,1-31-4-45-3-6-4-14-5-21Z"/><path class="cls-2" d="M399.61,30.21a44.83,44.83,0,0,1-23,0c1-8,1-16,4-24,11,3,23,1,34,0,13-1,26,0,39,1,1,6-3,10-2,16-10,0-19,0-29,2,2,16,8,30,11,46,1,8,2,16-1,23-8,0-16,3-24,2,5-15,1-31-4-45-3-6-4-14-5-21Z"/><path class="cls-1" d="M502.61,64.21c1,5,3,11,8,12a15.17,15.17,0,0,0,13-3,9.59,9.59,0,0,0,2-9c-3-15-7-28-9-43,0-5,0-11,3-16,9,0,19,0,28,1-7,18-1,36,1,55,1,9-2,17-7,24-10,11-25,14-40,12-14-2-24-16-24-30,8,2,17-1,25-3Z"/><path class="cls-2" d="M502.61,64.21c1,5,3,11,8,12a15.17,15.17,0,0,0,13-3,9.59,9.59,0,0,0,2-9c-3-15-7-28-9-43,0-5,0-11,3-16,9,0,19,0,28,1-7,18-1,36,1,55,1,9-2,17-7,24-10,11-25,14-40,12-14-2-24-16-24-30,8,2,17-1,25-3Z"/><path class="cls-1" d="M603.61,4.21c1,8,5,16,9,23,6,10,13,18,18,28,6,13,7,26,9,40-7-3-14-2-21-2v-4c-2-5-2-10-3-15-10,2-20,4-29,7-3,2-2,8-4,11-6,8-16,5-24,3h-7c5-7,10-15,13-23,7-21,2-43,12-63,9-3,18-3,27-5Zm-14,58c5-4,12-3,17-7-5-5-8-11-13-16-1-3-4-6-4-9a18.54,18.54,0,0,0-2,7c1,8,0,17,2,25Z"/><path class="cls-2" d="M603.61,4.21c1,8,5,16,9,23,6,10,13,18,18,28,6,13,7,26,9,40-7-3-14-2-21-2v-4c-2-5-2-10-3-15-10,2-20,4-29,7-3,2-2,8-4,11-6,8-16,5-24,3h-7c5-7,10-15,13-23,7-21,2-43,12-63,9-3,18-3,27-5Zm-14,58c5-4,12-3,17-7-5-5-8-11-13-16-1-3-4-6-4-9a18.54,18.54,0,0,0-2,7c1,8,0,17,2,25Z"/><path class="cls-1" d="M715.61,29.21c3,9-1,19-8,25,10,11,16,25,18,40-7-1-13,1-20,3-3-12-8-24-16-33a16.89,16.89,0,0,1-10,3c-1,0-3,1-3,2,1,9,3,19,0,28-9-2-18,0-27-2,1-4,3-8,3-12,0-15-4-30-5-45,0-11-2-21,3-32,15,3,29-1,44,0,10,2,21,11,21,23Zm-45,22c8,0,18-4,21-12,2-6-3-14-10-14-5,0-10,4-15,3,1,8,2,16,4,23Z"/><path class="cls-2" d="M715.61,29.21c3,9-1,19-8,25,10,11,16,25,18,40-7-1-13,1-20,3-3-12-8-24-16-33a16.89,16.89,0,0,1-10,3c-1,0-3,1-3,2,1,9,3,19,0,28-9-2-18,0-27-2,1-4,3-8,3-12,0-15-4-30-5-45,0-11-2-21,3-32,15,3,29-1,44,0,10,2,21,11,21,23Zm-45,22c8,0,18-4,21-12,2-6-3-14-10-14-5,0-10,4-15,3,1,8,2,16,4,23Z"/><path class="cls-1" d="M757.61,68.21c0,8,7,10,13,10,5-1,10-1,13-5,2-3,4-7,1-11-6-7-15-3-23-1-11,3-22-1-29-11-1-2-2-3-3-5-3-10-3-21,5-29,13-15,35-15,52-9a21.86,21.86,0,0,0,5,3,7.81,7.81,0,0,1,4,4c1,2,1,3,3,5,1,2,2,6,1,6-7,4-17,1-24,5-5-10-17-8-25-3-3,2-3,6-1,9s6,4,9,4c8-1,15-3,23-3,12,1,23,10,25,23s-3,27-15,32c-14,5-29,9-43,3-6-3-11-7-14-13-1-2-1-5-3-7v-4c9,0,18,0,26-3Z"/><path class="cls-2" d="M757.61,68.21c0,8,7,10,13,10,5-1,10-1,13-5,2-3,4-7,1-11-6-7-15-3-23-1-11,3-22-1-29-11-1-2-2-3-3-5-3-10-3-21,5-29,13-15,35-15,52-9a21.86,21.86,0,0,0,5,3,7.81,7.81,0,0,1,4,4c1,2,1,3,3,5,1,2,2,6,1,6-7,4-17,1-24,5-5-10-17-8-25-3-3,2-3,6-1,9s6,4,9,4c8-1,15-3,23-3,12,1,23,10,25,23s-3,27-15,32c-14,5-29,9-43,3-6-3-11-7-14-13-1-2-1-5-3-7v-4c9,0,18,0,26-3Z"/><path class="cls-3" d="M19.81,25.4H52.27A14.85,14.85,0,0,1,67.12,40.24v62.29a0,0,0,0,1,0,0H5a0,0,0,0,1,0,0V40.24A14.85,14.85,0,0,1,19.81,25.4Z"/><rect class="cls-4" x="10.79" y="21.25" width="50.49" height="4.15"/><path class="cls-5" d="M53.4,41.53c-1.76-.89-3.11-2.69-4.76-3.88-3.43-2.49-7.91-2-11.37.4-2.61,1.82-4.74,4.64-7.47,6.15a9.2,9.2,0,0,1-9.11-.1c-1.67-1-3.14-2.45-4.87-3.27-3.32-1.6-7-.52-10.48.69l-.51.18v60.57H67V38.08c-.54.19-1.08.4-1.61.64C61.46,40.47,57.27,43.47,53.4,41.53Z"/><path class="cls-4" d="M13.6,8.14H58.48a4.8,4.8,0,0,1,4.8,4.8v8.3a0,0,0,0,1,0,0H8.8a0,0,0,0,1,0,0v-8.3A4.8,4.8,0,0,1,13.6,8.14Z"/><path class="cls-6" d="M44.26,99.81c-14.16,0-26.84-5.94-34.31-16.2a6.11,6.11,0,0,1,1-8.25,5.37,5.37,0,0,1,7.81,1.07C24.5,84.29,34.85,88.6,46.47,88a5.7,5.7,0,0,1,5.85,5.58A5.78,5.78,0,0,1,47,99.73C46.11,99.78,45.18,99.81,44.26,99.81Z"/><circle class="cls-7" cx="24.14" cy="85.55" r="1.75"/><circle class="cls-7" cx="27.44" cy="92.39" r="1.75"/><circle class="cls-7" cx="33.85" cy="90.64" r="1.75"/><circle class="cls-7" cx="42.78" cy="90.18" r="1.75"/><circle class="cls-7" cx="40.4" cy="96.26" r="1.75"/><circle class="cls-7" cx="48.75" cy="96.92" r="1.75"/><circle class="cls-7" cx="18.58" cy="87.31" r="1.75"/><circle class="cls-7" cx="18.18" cy="80.76" r="1.75"/><circle class="cls-7" cx="12.03" cy="80.03" r="1.75"/><path class="cls-6" d="M18.11,47.32c10,5.91,16.44,15.39,17.42,25.74a5,5,0,0,1-4.16,5.39,4.4,4.4,0,0,1-5.06-4c-.75-7.92-6.25-15.28-14.7-19.69a4.66,4.66,0,0,1-1.79-6.38,4.73,4.73,0,0,1,6.3-2.15C16.8,46.56,17.46,46.93,18.11,47.32Z"/><circle class="cls-7" cx="26.34" cy="65.77" r="1.44"/><circle class="cls-7" cx="26.87" cy="59.57" r="1.44"/><circle class="cls-7" cx="21.62" cy="58.13" r="1.44"/><circle class="cls-7" cx="15.14" cy="54.72" r="1.44"/><circle class="cls-7" cx="19.35" cy="51.43" r="1.44"/><circle class="cls-7" cx="13.74" cy="47.48" r="1.44"/><circle class="cls-7" cx="30.99" cy="66.86" r="1.44"/><circle class="cls-7" cx="28.54" cy="71.64" r="1.44"/><circle class="cls-7" cx="32.57" cy="74.72" r="1.44"/><path class="cls-6" d="M54,85.73c-9-8.35-13.49-19.59-12.17-30.49a5.28,5.28,0,0,1,5.51-4.62A4.64,4.64,0,0,1,51.6,55.9c-1,8.35,3,17.19,10.73,23.64a4.93,4.93,0,0,1,.42,7,5,5,0,0,1-7,.8C55.14,86.81,54.54,86.28,54,85.73Z"/><circle class="cls-7" cx="49.62" cy="64.84" r="1.52"/><circle class="cls-7" cx="47.67" cy="71.12" r="1.52"/><circle class="cls-7" cx="52.77" cy="73.79" r="1.52"/><circle class="cls-7" cx="58.69" cy="78.76" r="1.52"/><circle class="cls-7" cx="53.6" cy="81.21" r="1.52"/><circle class="cls-7" cx="58.04" cy="86.49" r="1.52"/><circle class="cls-7" cx="48.67" cy="58.29" r="1.52"/><circle class="cls-7" cx="45.21" cy="54.2" r="1.52"/></svg>