<?xml version="1.0" encoding="utf-8"?>
<!-- Generator: Adobe Illustrator 22.1.0, SVG Export Plug-In . SVG Version: 6.00 Build 0)  -->
<svg version="1.1" id="Layer_1" xmlns="http://www.w3.org/2000/svg" xmlns:xlink="http://www.w3.org/1999/xlink" x="0px" y="0px"
	 viewBox="0 0 698.6 108.5" style="enable-background:new 0 0 698.6 108.5;" xml:space="preserve">
<style type="text/css">
	.st0{fill:#FFFF00;}
	.st1{fill:#231F20;}
	.st2{fill:#F6EB0F;}
	.st3{fill:#FFFF22;}
	.st4{fill:none;stroke:#000000;stroke-width:2;}
	.st5{fill:#FF4545;stroke:#000000;stroke-width:2;}
	.st6{fill:#8BFF48;stroke:#000000;stroke-width:2;}
	.st7{fill:#F090D8;stroke:#000000;stroke-width:2;}
	.st8{fill:#94A7F9;stroke:#000000;stroke-width:2;}
	.st9{fill:#FFFF22;stroke:#000000;stroke-width:2;}
	.st10{fill:#4C1A57;}
	.st11{fill:#67E2E6;}
	.st12{fill:#F2F551;}
	.st13{fill:#97EA82;}
	.st14{fill:#EB52C2;}
	.st15{fill:#CE4FED;}
	.st16{fill:#444344;}
	.st17{fill:#FF293E;}
	.st18{fill:#F090D8;}
	.st19{fill:#1711F4;}
	.st20{fill:none;stroke:#000000;stroke-width:2;stroke-miterlimit:10;}
	.st21{fill:#EAEAEA;stroke:#000000;stroke-width:2;stroke-linecap:round;stroke-linejoin:round;}
	.st22{fill:#BABABA;stroke:#000000;stroke-width:2;stroke-linecap:round;stroke-linejoin:round;}
	.st23{fill:#C0FF97;stroke:#000000;stroke-width:2;}
	.st24{fill:#16B200;}
	.st25{fill:#E6FFFF;stroke:#000000;stroke-width:2;stroke-linecap:round;stroke-linejoin:round;}
	.st26{fill:#F2C7EA;stroke:#000000;stroke-width:2;}
	.st27{fill:#9B9B9B;stroke:#000000;stroke-width:2;stroke-linecap:round;stroke-linejoin:round;}
	.st28{fill:#30CC1F;stroke:#000000;stroke-width:2;}
	.st29{fill:#FFFFFF;stroke:#000000;stroke-width:2;}
	.st30{fill:#EA4DF7;stroke:#000000;stroke-width:2;}
	.st31{fill:#9800A8;stroke:#000000;stroke-width:2;}
	.st32{fill:#FFD524;stroke:#000000;stroke-width:2;}
	.st33{fill:#C68A12;stroke:#000000;stroke-width:2;}
	.st34{fill:#FF4545;stroke:#000000;stroke-width:10;stroke-linecap:round;}
	.st35{fill:#E2B574;}
	.st36{fill:#E2E2E2;}
	.st37{fill:#1DFF1D;}
	.st38{fill:none;stroke:#1DFF1D;stroke-width:3;stroke-miterlimit:10;}
	.st39{fill:#FFFFFF;}
</style>
<g>
	<g>
		<g>
			<path d="M29.5,68c-1,5,0,11,4,14c7,3,17,2,18-6c2-18,1-37,0-55c0-2,1-6,2-6c8-2,16-1,24-1c-2,19,0,38-1,57c-1,4-2,9-2,13
				c-1,5-4,8-7,11c-12,10-30,14-44,7c-12-6-19-19-18-32C13.5,69,21.5,70,29.5,68L29.5,68z"/>
		</g>
		<g>
			<path d="M128.5,105c-5,0-10,0-15-2c-2-1-5-2-7-3c-3-3-7-4-9-8c-4-6-6-13-7-20c-1-20,0-40,3-60c8,2,15,0,23,2c0,5-2,9-3,13
				c0,4,1,9,0,13c0,9,0,18,0,27c0,12,12,23,24,16c2-2,3-4,4-7c2-10,1-20,1-30c0-8,0-15,0-23c1-3,1-6,1-9c8-1,16,3,24,0
				c-1,18-1,37,0,55c0,6-2,12-4,17c-4,8-11,13-19,17C139.5,105,133.5,105,128.5,105L128.5,105z"/>
		</g>
		<g>
			<path d="M201.5,74c1,3,1,6,3,8c5,4,13,5,19,3c4-2,7-6,6-9c-2-9-13-8-22-10c-9-3-19-3-25-12c-7-12-6-27,5-36c11-8,24-8,36-7
				c14,2,28,13,28,28c-8,0-15,0-23,2c-1-10-14-13-22-10c-5,2-5,8-3,12c11,3,23,4,34,8c1,1,3,2,5,3c13,8,15,26,7,38
				c-10,13-27,15-42,13c-16-2-32-15-30-32C185.5,74,193.5,74,201.5,74L201.5,74z"/>
		</g>
		<g>
			<path d="M284.5,35c-8-2-17-1-25-1c1-6,0-11,0-17c0-1,1-4,1-4c21-2,42,3,63,1c2,0,5,1,7,1c1,0,2-1,3-1c0,7,0,13,0,20
				c-8,1-17,1-25,0c-2,15,0,29,0,44c0,8,0,16-1,24c-7,3-13-1-20,0c-1,0-3,1-4,1C284.5,80,284.5,58,284.5,35L284.5,35z"/>
		</g>
	</g>
</g>
<g>
	<g>
		<g>
			<path d="M378.5,68c0,8,3,16,12,16c7,0,12-6,12-13c-1-14,1-28,0-42c0-1-1-3-1-4c1-4,1-8,1-12c8-1,17,2,25,0c-2,17-2,35-1,52
				c0,11-2,23-10,31c-10,9-23,9-35,8c-16-2-28-18-26-34C363.5,69,370.5,68,378.5,68L378.5,68z"/>
		</g>
		<g>
			<path d="M487.5,13c4,7,6,15,8,23c5,14,11,27,14,42c0,1,2,1,2,2c2,8,3,16,8,22c-8,0-17,0-25,0c-2-6-3-12-6-17c-10,0-19,0-29,0
				c-2,6-3,11-5,17c-8,0-16-3-24,0c6-21,16-41,23-62c2-9,6-17,8-26C470.5,13,478.5,13,487.5,13L487.5,13z M466.5,67c5-2,12,0,17-2
				c-2-10-7-19-9-29C470.5,46,468.5,56,466.5,67L466.5,67z"/>
		</g>
		<g>
			<path d="M598.5,41c3,10-5,19-12,26c5,12,15,21,17,35c-7,0-15,2-22,3c-7-10-11-22-17-33c-4,0-8-1-12,1c0,10-3,20,0,30
				c-8-1-16,0-24-2c2-27,1-54,2-81c0-2-1-5-1-7c21,3,44-4,63,8C596.5,27,598.5,34,598.5,41L598.5,41z M551.5,53c7,0,16,2,22-3
				c2-2,4-5,3-9c-3-10-16-11-25-9c1,6,0,12-1,18C550.5,51,551.5,52,551.5,53L551.5,53z"/>
		</g>
		<g>
			<path d="M632.5,74c2,11,14,13,23,10c5-2,6-9,4-14c-13-2-27-5-39-10c-8-4-13-13-12-23c3-19,22-29,40-27c16,2,33,11,34,29
				c-8,0-15-1-23,1c-1-5-4-8-8-10c-6-3-15-2-18,4c-1,3-1,8,3,10c13,4,28,3,40,11c11,9,12,27,2,36c-15,16-40,20-59,6
				c-7-6-12-15-11-24C616.5,73,624.5,72,632.5,74L632.5,74z"/>
		</g>
	</g>
</g>
<g>
	<g>
		<g>
			<path class="st3" d="M37.5,61c0,5,1,11,5,14c6,4,16,1,17-6c4-21,2-41,2-62c8,0,17-1,25,2c-4,25,4,50-6,74c-13,18-45,22-60,3
				c-5-7-7-15-6-23C22.5,62,29.5,62,37.5,61L37.5,61z"/>
			<path class="st4" d="M37.5,61c0,5,1,11,5,14c6,4,16,1,17-6c4-21,2-41,2-62c8,0,17-1,25,2c-4,25,4,50-6,74c-13,18-45,22-60,3
				c-5-7-7-15-6-23C22.5,62,29.5,62,37.5,61L37.5,61z"/>
		</g>
		<g>
			<path class="st3" d="M136.5,98c-12,1-24-4-32-14c-3-4-4-9-4-13c-4-22-1-44,2-66c6,2,12,1,18,1c1,0,4,1,4,1c-1,15-2,31-3,46
				c0,7,0,15,5,21c4,4,10,5,15,4c2-1,6-2,7-5c4-17,2-34,3-51c0-5,0-9,0-14c8-2,17,0,25,0c-2,19-1,39-2,58c-1,6-1,12-4,17
				C162.5,94,149.5,99,136.5,98L136.5,98z"/>
			<path class="st4" d="M136.5,98c-12,1-24-4-32-14c-3-4-4-9-4-13c-4-22-1-44,2-66c6,2,12,1,18,1c1,0,4,1,4,1c-1,15-2,31-3,46
				c0,7,0,15,5,21c4,4,10,5,15,4c2-1,6-2,7-5c4-17,2-34,3-51c0-5,0-9,0-14c8-2,17,0,25,0c-2,19-1,39-2,58c-1,6-1,12-4,17
				C162.5,94,149.5,99,136.5,98L136.5,98z"/>
		</g>
		<g>
			<path class="st3" d="M209.5,67c2,12,16,15,26,9c3-2,4-6,2-10c-1-2-3-4-5-4c-15-1-31-4-42-15c-8-10-5-24,3-33c15-15,40-12,58-2
				c4,6,9,12,8,20c-7-1-14,2-22,2c-2-8-11-12-19-11c-7,1-10,7-6,13c9,2,18,5,28,6c8,1,14,7,19,14c5,9,4,20-3,29c-12,16-35,16-52,10
				c-11-5-21-16-18-29C194.5,66,201.5,65,209.5,67L209.5,67z"/>
			<path class="st4" d="M209.5,67c2,12,16,15,26,9c3-2,4-6,2-10c-1-2-3-4-5-4c-15-1-31-4-42-15c-8-10-5-24,3-33c15-15,40-12,58-2
				c4,6,9,12,8,20c-7-1-14,2-22,2c-2-8-11-12-19-11c-7,1-10,7-6,13c9,2,18,5,28,6c8,1,14,7,19,14c5,9,4,20-3,29c-12,16-35,16-52,10
				c-11-5-21-16-18-29C194.5,66,201.5,65,209.5,67L209.5,67z"/>
		</g>
		<g>
			<path class="st3" d="M292.5,27c-8,0-17,0-25,0c1-7,0-15,2-22c24,3,48,3,72,2c2,4,1,8,1,12c-1,3-1,5,0,8c-9,0-17,3-26,0
				c-2,20,2,41,1,61c0,12-13,7-21,7c-1,0-3,1-4,1c-1-18,3-35,0-53c0-4,0-8,1-12C293.5,30,292.5,28,292.5,27L292.5,27z"/>
			<path class="st4" d="M292.5,27c-8,0-17,0-25,0c1-7,0-15,2-22c24,3,48,3,72,2c2,4,1,8,1,12c-1,3-1,5,0,8c-9,0-17,3-26,0
				c-2,20,2,41,1,61c0,12-13,7-21,7c-1,0-3,1-4,1c-1-18,3-35,0-53c0-4,0-8,1-12C293.5,30,292.5,28,292.5,27L292.5,27z"/>
		</g>
	</g>
</g>
<g>
	<g>
		<g>
			<path class="st3" d="M386.5,61c2,5,2,11,6,14c5,3,14,2,15-4c5-16,5-32,3-49c0-5-1-11,1-16c8-1,17,2,25,0c-2,22-1,43-2,65
				c-1,9-7,18-16,22c-2,1-5,2-7,3c-14,4-30,1-41-10c-6-6-6-15-7-23C371.5,63,378.5,62,386.5,61L386.5,61z"/>
			<path class="st4" d="M386.5,61c2,5,2,11,6,14c5,3,14,2,15-4c5-16,5-32,3-49c0-5-1-11,1-16c8-1,17,2,25,0c-2,22-1,43-2,65
				c-1,9-7,18-16,22c-2,1-5,2-7,3c-14,4-30,1-41-10c-6-6-6-15-7-23C371.5,63,378.5,62,386.5,61L386.5,61z"/>
		</g>
		<g>
			<path class="st3" d="M496.5,6c7,18,13,37,20,55c5,10,6,21,9,31c0,1,1,2,2,3c-9,0-17,0-26,0c1-6-1-11-3-17c-10,0-20,0-30,0
				c-2,6-6,10-5,17c-7,0-14,1-21-1c-1,0-2,1-3,1c1-3,1-6,2-9c9-22,15-44,23-66c2-5,2-11,7-14c7-3,15,1,23,1C495.5,7,495.5,6,496.5,6
				L496.5,6z M474.5,59c6,0,12,1,18-1c-5-9-6-19-9-29C478.5,38,476.5,49,474.5,59L474.5,59z"/>
			<path class="st4" d="M496.5,6c7,18,13,37,20,55c5,10,6,21,9,31c0,1,1,2,2,3c-9,0-17,0-26,0c1-6-1-11-3-17c-10,0-20,0-30,0
				c-2,6-6,10-5,17c-7,0-14,1-21-1c-1,0-2,1-3,1c1-3,1-6,2-9c9-22,15-44,23-66c2-5,2-11,7-14c7-3,15,1,23,1C495.5,7,495.5,6,496.5,6
				L496.5,6z M474.5,59c6,0,12,1,18-1c-5-9-6-19-9-29C478.5,38,476.5,49,474.5,59L474.5,59z"/>
		</g>
		<g>
			<path class="st3" d="M606.5,34c2,10-4,20-12,26c7,11,14,22,17,35c-7-1-14,5-21,2c-3-1-4-5-6-8c-4-8-6-17-12-23c-3-3-8,0-12,0
				c0,10,0,20,0,30c-8-1-16,0-24-2c1-3,2-6,2-9c-3-27,2-53-1-79c17,1,34,0,51,2C600.5,10,606.5,23,606.5,34L606.5,34z M560.5,46
				c7,3,14,0,20-2c3-1,3-5,4-8c0-5-3-10-8-11c-6-1-11,0-17,0c3,6-1,12,0,18C559.5,44,560.5,45,560.5,46L560.5,46z"/>
			<path class="st4" d="M606.5,34c2,10-4,20-12,26c7,11,14,22,17,35c-7-1-14,5-21,2c-3-1-4-5-6-8c-4-8-6-17-12-23c-3-3-8,0-12,0
				c0,10,0,20,0,30c-8-1-16,0-24-2c1-3,2-6,2-9c-3-27,2-53-1-79c17,1,34,0,51,2C600.5,10,606.5,23,606.5,34L606.5,34z M560.5,46
				c7,3,14,0,20-2c3-1,3-5,4-8c0-5-3-10-8-11c-6-1-11,0-17,0c3,6-1,12,0,18C559.5,44,560.5,45,560.5,46L560.5,46z"/>
		</g>
		<g>
			<path class="st3" d="M640.5,67c2,11,16,14,25,9c2-1,4-3,4-6c0-4-2-7-5-7c-10-3-21-4-31-7c-10-4-14-14-16-24c-1-9,4-18,12-22
				c11-6,23-8,35-6c13,3,28,13,26,28c-7,0-15-1-22,1c-3-8-14-14-22-10c-3,2-6,5-6,8c1,5,8,5,12,7c8,3,18,3,26,6c1,1,3,2,5,3s3,2,4,4
				s2,3,3,5c7,13,0,32-13,38c-13,5-27,6-40,1c-2-1-4-2-7-3c-9-5-14-16-13-26C625.5,66,632.5,65,640.5,67L640.5,67z"/>
			<path class="st4" d="M640.5,67c2,11,16,14,25,9c2-1,4-3,4-6c0-4-2-7-5-7c-10-3-21-4-31-7c-10-4-14-14-16-24c-1-9,4-18,12-22
				c11-6,23-8,35-6c13,3,28,13,26,28c-7,0-15-1-22,1c-3-8-14-14-22-10c-3,2-6,5-6,8c1,5,8,5,12,7c8,3,18,3,26,6c1,1,3,2,5,3s3,2,4,4
				s2,3,3,5c7,13,0,32-13,38c-13,5-27,6-40,1c-2-1-4-2-7-3c-9-5-14-16-13-26C625.5,66,632.5,65,640.5,67L640.5,67z"/>
		</g>
	</g>
</g>
</svg>
