<?xml version="1.0" encoding="utf-8"?>
<!-- Generator: Adobe Illustrator 22.1.0, SVG Export Plug-In . SVG Version: 6.00 Build 0)  -->
<svg version="1.1" id="Layer_1" xmlns="http://www.w3.org/2000/svg" xmlns:xlink="http://www.w3.org/1999/xlink" x="0px" y="0px"
	 viewBox="0 0 1202.7 240.1" style="enable-background:new 0 0 1202.7 240.1;" xml:space="preserve">
<style type="text/css">
	.st0{fill:#FFFFFF;}
</style>
<g>
	<path class="st0" d="M28.3,154.8C19.4,148,11,141.4,2.5,135c-1.6-1.2-3-2.5-2.3-4.7c0.7-2.4,2.6-2.8,4.7-2.8
		c5.7,0.1,11.4,0.3,17.1,0.5c13.2,0.5,26.2-1.4,39-4.2c27.5-6,53.8-15.4,78.9-28.1c12.5-6.4,21-16.3,24.2-30.3
		c2.1-9.3,4.4-18.7,7.6-27.7c2.4-6.9,6.2-13.4,9.8-19.9c2.9-5.1,7.4-8.8,12.4-11.9c12.3-7.5,26.4-5.7,35.8,5.2
		c3.6,4.2,7.3,7.7,12.7,9.7c5.2,2,9.4,6.1,12.5,10.9c1,1.6,1.7,3.3,0.3,5c-1.3,1.7-3,1.7-4.9,1.2c-6.1-1.7-12-1.4-16.9,2.9
		c-5.8,5.1-9.2,11.6-10.5,19.4c-2.3,14.8,1.1,28.7,6.4,42.4c3.2,8.4,5.6,17.1,8.4,25.7c0.2,0.7,1.5,1.4,2.3,1.5
		c6.7,0.3,13.4,0.4,20.1,0.6c1.4,0,2.7,0,4.1,0.2c3.4,0.6,4.3,1.7,4.2,5.1c-0.7,16.7-1.4,33.5-2.1,50.2c-0.1,3.2-0.4,6.3-0.4,9.5
		c0,3.2-1.2,5.8-3.7,7.8c-3.5,2.9-6.9,5.9-10.5,8.6c-1.3,1-3.1,1.6-4.7,1.6c-25.7,0.3-51.4,0.4-77.2,0.6c-3.1,0-4.3-0.7-4.4-3.8
		c-0.2-4.7,0-9.4,0-14.1c0-1,0-2,0-3.2c-2.7,0.5-5.1,0.9-7.4,1.5c-10.3,2.3-20.7,0.9-31.1,0.3c-20.4-1.2-38.9-9.1-57.7-16.2
		c-1.9-0.7-4-0.9-6-0.9c-17.6,0.3-35.1,0.7-52.7,1.1c-0.6,0-1.3,0-1.9,0c-1.9,0-3.4-0.7-4-2.6c-0.6-1.8,0.1-3.4,1.6-4.5
		c5.8-4.4,11.5-8.8,17.2-13.2C25,157.3,26.5,156.2,28.3,154.8z M36.9,135.2c0.9,0.6,1.6,1.2,2.4,1.7c8.5,5.7,17,11.3,25.6,16.9
		c23.5,15.5,49.2,23.7,77.6,22.8c10.1-0.3,19.8-2.2,28.7-7.1c13.7-7.6,23.9-18.9,32-32.2c2.3-3.8,4-7.9,6-11.8
		c0.9-1.9,2.2-3.3,4.4-2.7c2.3,0.7,2.9,2.5,2.5,4.7c-0.1,0.4-0.2,0.9-0.3,1.7c5,0,9.9,0,15.2,0c-0.9-3.2-1.6-6.3-2.7-9.3
		c-3-8.5-6.3-17-9.2-25.5c-4.6-13.4-5.7-27.2-1.8-40.9c3.4-11.8,10.4-21.1,23.5-23.8c0.5-0.1,1.1-0.3,1.6-0.4c0-0.2,0.1-0.4,0.1-0.7
		c-2.3-1.1-4.6-2.8-7.1-3.1c-4-0.5-6.3-2.7-8-6c-0.3-0.5-0.6-0.9-0.9-1.3c-8.1-11.3-21.2-12.8-31.9-4.2c-7.1,5.7-11,13.3-14.5,21.3
		c-4,9.1-6.2,18.7-8.1,28.3c-3.6,17.6-13.3,30.6-29.2,38.5c-9.4,4.7-19.3,8.6-29,12.9c-1.6,0.7-3.2,1.3-5.2,2c2.1,2,3.8,3.6,5.5,5.2
		c3.6,3.4,7.3,6.8,10.9,10.2c1.6,1.5,1.9,3.3,0.3,5c-1.6,1.7-3.4,1.5-5.1,0.1c-0.8-0.6-1.5-1.3-2.2-2c-5.2-4.8-10.3-9.7-15.5-14.4
		c-0.7-0.6-1.8-1.3-2.5-1.1c-3,0.8-5.9,2-9.1,3.1c0.4,0.5,0.6,0.8,0.8,1c9.3,8.7,18.6,17.5,27.9,26.2c0.5,0.5,1.4,1,1.5,1.5
		c0.2,1.4,0.4,3.1-0.2,4.2c-0.9,1.6-2.7,1.7-4.3,0.8c-1-0.6-1.9-1.4-2.8-2.2c-9.8-9.1-19.6-18.3-29.4-27.4c-0.7-0.7-1.9-1.3-2.7-1.2
		c-2.3,0.4-4.5,1.3-7.5,2.2c3.8,3.7,7.2,7,10.7,10.3c2.8,2.6,5.7,5.1,8.3,7.9c0.9,1,1.5,2.8,1.2,4c-0.2,1-1.8,2.2-2.9,2.3
		c-1.1,0.1-2.6-0.7-3.5-1.6c-6.7-6.4-13.2-12.9-19.9-19.2c-0.9-0.8-2.4-1.8-3.4-1.6C55.4,131.9,46.3,133.5,36.9,135.2z M173,206.4
		c23.7,0,47.5,0,71.7,0c0-1.8,0-3.1,0-4.5c0.1-15.7,0.2-31.5,0.5-47.2c0-2.5-0.5-3.3-3-3.3c-12.4,0-24.8-0.2-37.2-0.5
		c-1.9,0-3,0.6-4.1,2c-6.9,8.5-14.6,16.1-24.2,21.5c-3,1.7-3.8,3.6-3.8,6.8C173.1,189.7,173,198.1,173,206.4z M165.9,179.8
		c-3.5,1-6.5,2.1-9.7,2.6c-11.8,2-23.7,1.9-35.4,0.4c-18.4-2.5-35.7-8.4-51.6-17.8c-14.5-8.6-28.7-17.5-41.7-28.3
		c-0.9-0.8-2.1-1.8-3.2-1.9c-2.9-0.1-5.8,0.3-9.3,0.5c2.3,1.8,4.1,3.2,5.9,4.6c13.5,10.9,27.6,21,43.3,28.2
		c20.2,9.3,40.8,17.9,63.6,19.5c11.9,0.8,23.6,1.5,35.3-1.5c2-0.5,3-1.3,2.8-3.4C165.8,181.9,165.9,181,165.9,179.8z M260.4,142.7
		c-2.1,1.7-4.4,3.4-6.5,5.4c-0.8,0.8-1.5,2.2-1.6,3.4c-0.3,15.8-0.4,31.7-0.6,47.5c0,0.9,0,1.9,0,3.4c1.7-1.4,2.9-2.4,4.2-3.3
		c2.1-1.5,3-3.3,3-5.9c0-6.7,0.4-13.4,0.6-20.1c0.2-5.5,0.7-11,0.8-16.5C260.6,152.1,260.4,147.5,260.4,142.7z M254.7,137.9
		c-0.2-0.3-0.3-0.4-0.3-0.4c-13.7-0.4-27.3-0.8-41-1.2c-0.6,0-1.5,0.3-1.8,0.8c-1.3,2.1-2.5,4.3-3.8,6.6c0.5,0.1,0.8,0.3,1,0.3
		c12.2,0.2,24.4,0.4,36.7,0.5c0.6,0,1.4,0,1.8-0.3C249.9,142.1,252.3,140,254.7,137.9z M18.8,171.1c11.6,0,22.7,0,33.8,0
		c0-0.2,0-0.4,0.1-0.6c-6-3.8-12-7.6-18.1-11.5C29.4,163,24.2,167,18.8,171.1z"/>
	<path class="st0" d="M220.9,22.6c0,2-1.6,3.6-3.6,3.5c-2.1-0.1-3.3-1.3-3.4-3.4c-0.1-1.9,1.6-3.7,3.5-3.7
		C219.2,18.9,220.9,20.6,220.9,22.6z"/>
</g>
<g>
	<path class="st0" d="M483.8,165.4c0,19.4,4.5,22,26.5,22.3v5.4c-10.2-0.4-27.5-0.7-45.1-0.7c-14.3,0-28.5,0.4-39.3,0.7v-5
		c15.7-0.7,18.5-3.3,18.5-21.3V43.9c0-18-2.9-20.6-18.5-21.3v-5c8.3,0.5,23.7,0.7,37.6,0.7c16.2,0,32.7-0.5,38.9-0.5
		c46.1,0,68.6,20.1,68.6,48.9c0,23.9-15.6,55.4-74,55.4h-13.2V165.4z M483.8,43.9v73.3h10.6c29.3,0,35.4-22.5,35.4-47.8
		c0-31.2-8.2-46.8-30.7-46.8C486.5,22.7,483.8,26.9,483.8,43.9z"/>
	<path class="st0" d="M633.8,170.1c0,13.8,4.2,17.8,15.8,17.8v5.2c-6.3-0.2-20.2-1-33.1-1c-12.8,0-27.7,0.7-34.2,1v-5.2
		c11.5,0,15.8-4,15.8-17.8V92c0-14.9-3.9-21.9-15.8-21.9v-5.2c5.2,0.5,10.4,0.8,15.4,0.8c13.8,0,25.8-1.1,36.2-3.5V170.1z
		 M636.8,20.1c0,12-8.8,19.2-22.5,19.2c-13.9,0-22.6-7.3-22.6-19.2c0-11.9,8.7-19.1,22.6-19.1C628,1,636.8,8.3,636.8,20.1z"/>
	<path class="st0" d="M752.4,161.4c18,0,33.5,6.4,33.5,26.6c0,23.8-22.5,51.6-71.7,51.6c-37.4,0-54.9-9.6-54.9-21.4
		c0-15.7,24.3-14.8,37.5-23.8h-5.8c-9.4,0-27.7-3.3-27.7-23c0-14,8-23.7,31.6-34.8c-16.6-5.4-27.2-17.1-27.2-35.7
		c0-27.3,22.7-39.4,53.2-39.4c6.5,0,12.8,0.6,18.5,1.7c-0.2-4.1,0-8.2,0.8-12.2c1.6-12.9,8.7-22.9,23.5-22.9c10.5,0,18,5.8,18,15.1
		c0,8.3-7.3,14.4-16.9,14.4c-10.5,0-15.4-5.2-18.5-13.9c-1.7,2.9-2.9,7.1-3.6,12.6c-0.1,1.2-0.1,2.4-0.1,3.6c0,1.3,0,2.7,0.1,4
		c19,4.8,31.6,16.7,31.6,37c0,27.2-22.9,39.4-53.3,39.4c-7.7,0-15-0.7-21.4-2.4c-8.3,5-14.2,9-14.2,15.2c0,5.7,3.5,8.2,10.2,8.2
		H752.4z M758.3,204.7c0-6.7-3-10.3-14.3-10.3h-42.6c-5.8,5.6-8.5,14.3-8.5,19.6c0,14.2,12.2,21.4,27.8,21.4
		C740.7,235.4,758.3,224.2,758.3,204.7z M704.2,100.9c0,26.5,6.3,35,16.6,35c10.3,0,16.6-8.5,16.6-35s-6.3-35-16.6-35
		C710.5,66,704.2,74.4,704.2,100.9z"/>
	<path class="st0" d="M900.3,156.3l4.5,1.7c-5.9,18.6-22.1,38.6-49.6,38.6c-33.4,0-57.1-21-57.1-66.3c0-46,25.4-68.8,60.6-68.8
		c28.9,0,46.6,16.2,46.6,55h-69.3c-0.4,3.6-0.5,7.7-0.5,11.7c0,34.5,16.6,47.9,32.3,47.9C877.7,176.1,890.3,172.8,900.3,156.3z
		 M835.2,111.8H874c0.5-24.2-4.7-45-16.8-45C846.1,66.8,837.3,79.7,835.2,111.8z"/>
	<path class="st0" d="M1044.5,129.1c0,49.1-25,67.5-60.7,67.5c-35.6,0-60.6-18.4-60.6-67.5c0-49,25-67.6,60.6-67.6
		C1019.4,61.5,1044.5,80.1,1044.5,129.1z M960.5,129.1c0,44.4,9.8,62.5,23.2,62.5c13.5,0,23.3-18.1,23.3-62.5
		c0-44.3-9.8-62.7-23.3-62.7C970.3,66.4,960.5,84.8,960.5,129.1z"/>
	<path class="st0" d="M1179.1,71.2c5.4,6.3,7.7,15.4,7.7,32.2v66.8c0,13.8,4.4,17.8,15.8,17.8v5.2c-6.3-0.2-20.6-1-32.7-1
		c-12.7,0-26.1,0.7-32.2,1v-5.2c9.8,0,13.3-4,13.3-17.8V93c0-12.3-2.9-20.7-15.2-20.7c-13.9,0-24.6,12.3-24.6,28.7v69.1
		c0,13.8,3.5,17.8,13.3,17.8v5.2c-5.8-0.2-18.6-1-30.7-1c-12.7,0-27.6,0.7-34.1,1v-5.2c11.5,0,15.8-4,15.8-17.8V92
		c0-14.9-3.9-21.9-15.8-21.9v-5.2c5.2,0.5,10.4,0.8,15.4,0.8c13.8,0,25.8-1.1,36.2-3.5v22.4c8.2-16.8,23-23.1,40.4-23.1
		C1165.9,61.5,1174,65.3,1179.1,71.2z"/>
</g>
</svg>
