<?xml version="1.0" encoding="utf-8"?>
<!-- Generator: Adobe Illustrator 22.1.0, SVG Export Plug-In . SVG Version: 6.00 Build 0)  -->
<svg version="1.1" id="Layer_1" xmlns="http://www.w3.org/2000/svg" xmlns:xlink="http://www.w3.org/1999/xlink" x="0px" y="0px"
	 viewBox="0 0 698.6 108.5" style="enable-background:new 0 0 698.6 108.5;" xml:space="preserve">
<style type="text/css">
	.st0{fill:#FFFF00;}
	.st1{fill:#231F20;}
	.st2{fill:#F6EB0F;}
	.st3{fill:#FFFF22;}
	.st4{fill:none;stroke:#000000;stroke-width:2;}
	.st5{fill:#FF4545;stroke:#000000;stroke-width:2;}
	.st6{fill:#8BFF48;stroke:#000000;stroke-width:2;}
	.st7{fill:#F090D8;stroke:#000000;stroke-width:2;}
	.st8{fill:#94A7F9;stroke:#000000;stroke-width:2;}
	.st9{fill:#FFFF22;stroke:#000000;stroke-width:2;}
	.st10{fill:#4C1A57;}
	.st11{fill:#67E2E6;}
	.st12{fill:#F2F551;}
	.st13{fill:#97EA82;}
	.st14{fill:#EB52C2;}
	.st15{fill:#CE4FED;}
	.st16{fill:#444344;}
	.st17{fill:#FF293E;}
	.st18{fill:#F090D8;}
	.st19{fill:#1711F4;}
	.st20{fill:none;stroke:#000000;stroke-width:2;stroke-miterlimit:10;}
	.st21{fill:#EAEAEA;stroke:#000000;stroke-width:2;stroke-linecap:round;stroke-linejoin:round;}
	.st22{fill:#BABABA;stroke:#000000;stroke-width:2;stroke-linecap:round;stroke-linejoin:round;}
	.st23{fill:#C0FF97;stroke:#000000;stroke-width:2;}
	.st24{fill:#16B200;}
	.st25{fill:#E6FFFF;stroke:#000000;stroke-width:2;stroke-linecap:round;stroke-linejoin:round;}
	.st26{fill:#F2C7EA;stroke:#000000;stroke-width:2;}
	.st27{fill:#9B9B9B;stroke:#000000;stroke-width:2;stroke-linecap:round;stroke-linejoin:round;}
	.st28{fill:#30CC1F;stroke:#000000;stroke-width:2;}
	.st29{fill:#FFFFFF;stroke:#000000;stroke-width:2;}
	.st30{fill:#EA4DF7;stroke:#000000;stroke-width:2;}
	.st31{fill:#9800A8;stroke:#000000;stroke-width:2;}
	.st32{fill:#FFD524;stroke:#000000;stroke-width:2;}
	.st33{fill:#C68A12;stroke:#000000;stroke-width:2;}
	.st34{fill:#FF4545;stroke:#000000;stroke-width:10;stroke-linecap:round;}
	.st35{fill:#E2B574;}
	.st36{fill:#E2E2E2;}
	.st37{fill:#1DFF1D;}
	.st38{fill:none;stroke:#1DFF1D;stroke-width:3;stroke-miterlimit:10;}
	.st39{fill:#FFFFFF;}
</style>
<g>
	<g>
		<g>
			<path d="M32.5,72.2c3,3,3,9,7,11c5,2,10,0,14-3c3-3,4-7,3-12c-5-19-14-37-8-56c10,0,19,2,29,2c-4,5-3,11-3,16c0,14,3,28,3,42
				c0,3,1,7-1,11c-5,11-14,18-26,21c-10,2-19,1-28-3c-6-3-10-9-13-15c-1-3-3-7-2-11C15.5,75.2,24.5,75.2,32.5,72.2L32.5,72.2z"/>
		</g>
		<g>
			<path d="M133.5,104.2c-12,3-26-1-34-11c-10-25-13-54-7-80c7,2,13,2,20,2c-7,22,0,46,11,66c3,4,8,4,12,3c1-1,3-2,5-3
				c13-12-1-28-4-42c-1-9,0-18,3-26c9,0,19,0,28,2c-8,15-2,32,0,48c0,7,2,14-2,21C158.5,95.2,147.5,105.2,133.5,104.2L133.5,104.2z"
				/>
		</g>
		<g>
			<path d="M206.5,77.2c2,9,15,10,22,6c4-3,6-9,5-14c-2-4-7-4-11-3c-14,3-31,6-41-6c-8-11-8-27,1-37c6-6,12-9,20-11c18-4,43,1,46,22
				c-9-1-17,1-25,4c-3-5-7-9-13-8c-7,1-15,6-12,14c0,2,2,5,7,4c13-3,27-6,39,2c12,7,14,24,8,37c-1,1-2,3-3,5c-10,11-24,14-37,13
				c-9-1-17-2-24-8c-5-5-8-12-9-19C188.5,78.2,197.5,78.2,206.5,77.2L206.5,77.2z"/>
		</g>
		<g>
			<path d="M278.5,37.2c-7,1-15,2-22,0c2-8,0-16,3-24c3,1,5,2,8,2c22,1,44-4,66-1c-2,5-2,11-3,16c-9,0-19,0-28,2c-1,15,9,27,11,42
				c1,9,0,18-1,27c-8,0-17,3-25,2c8-19-4-38-8-58C279.5,42.2,279.5,40.2,278.5,37.2L278.5,37.2z"/>
		</g>
	</g>
</g>
<g>
	<g>
		<g>
			<path d="M381.5,71.2c1,1,2,1,2,2c1,8,8,13,15,9c8-4,9-13,7-20c-7-15-14-34-6-50c9-1,19,1,28,1c-8,16-2,34,0,51c1,10,0,21-7,29
				c-6,6-13,10-21,11c-9,0-18,1-26-3c-10-5-16-16-16-27C365.5,75.2,373.5,73.2,381.5,71.2L381.5,71.2z"/>
		</g>
		<g>
			<path d="M482.5,11.2c1,1,2,3,2,4c1,16,14,27,21,40c3,6,5,11,7,17c0,1,2,2,2,3c3,9,4,18,4,27c-6-2-13-2-20-2c1-4-1-8-1-12
				c-1-2-3-4-3-7c-10,1-19,6-29,6c-2,5-2,12-7,15c-7,3-15,2-22,0c-2,0-4,0-6,0c3-5,7-10,10-15c1-2,2-5,3-7c1-4,2-9,3-13c0-2,0-3,0-5
				c1-3,2-5,2-8c1-13,2-27,8-39C465.5,14.2,473.5,13.2,482.5,11.2L482.5,11.2z M469.5,69.2c5-3,10-6,16-7c-1-1-1-3-2-4
				c-6-7-12-13-15-21C466.5,48.2,467.5,59.2,469.5,69.2L469.5,69.2z"/>
		</g>
		<g>
			<path d="M595.5,36.2c0,4,1,9,0,13c-2,4-4,8-8,12c3,5,7,10,10,15c1,2,2,5,3,7c2,6,4,12,4,18c-7-1-13,1-20,3c-1-12-7-24-15-33
				c-2-1-5,1-7,3c-2,1-5,1-7,2c4,9,1,19,1,28c-9-2-18,0-27-2c2-8,3-16,2-24c-3-18-6-36-5-54c1-3,2-5,3-8c0-1-1-2-1-3c15,3,30-1,45,0
				c5,1,11,2,15,6C592.5,24.2,593.5,30.2,595.5,36.2L595.5,36.2z M550.5,58.2c10-2,24-8,20-20c-4-10-16-3-24-3
				C546.5,43.2,548.5,51.2,550.5,58.2L550.5,58.2z"/>
		</g>
		<g>
			<path d="M637.5,76.2c-1,4,4,8,8,8c5,0,10,1,14-2c5-4,8-11,3-14c-8-5-17,0-25,1c-12,1-25-5-29-17c-3-11-2-24,7-32
				c13-11,29-11,45-8c10,2,17,11,19,21c-8,0-17,1-25,4c-2-5-6-8-11-8c-7,0-15,4-16,12c0,5,5,7,9,6c15-3,32-5,44,6c1,1,2,3,3,5
				c3,6,4,14,3,21c-1,8-7,13-13,18c-12,9-28,8-42,6c-12-2-19-14-21-25C619.5,79.2,628.5,76.2,637.5,76.2L637.5,76.2z"/>
		</g>
	</g>
</g>
<g>
	<g>
		<g>
			<path class="st3" d="M40.5,65.2c3,3,2,7,5,9c3,1,6,3,10,2c5-2,8-5,9-10c0-7-2-13-4-19c-5-13-7-28-3-41c9,0,19-1,28,2
				c-3,6-4,13-3,20c1,16,7,31,2,47c-2,8-8,16-16,19c-14,4-31,8-42-4c-1-2-3-3-5-5c-3-5-6-11-5-17C24.5,68.2,32.5,67.2,40.5,65.2
				L40.5,65.2z"/>
			<path class="st4" d="M40.5,65.2c3,3,2,7,5,9c3,1,6,3,10,2c5-2,8-5,9-10c0-7-2-13-4-19c-5-13-7-28-3-41c9,0,19-1,28,2
				c-3,6-4,13-3,20c1,16,7,31,2,47c-2,8-8,16-16,19c-14,4-31,8-42-4c-1-2-3-3-5-5c-3-5-6-11-5-17C24.5,68.2,32.5,67.2,40.5,65.2
				L40.5,65.2z"/>
		</g>
		<g>
			<path class="st3" d="M141.5,97.2c-13,4-28-1-33-13c-12-24-14-52-8-78c7,2,13,2,20,2c-2,9-3,18-1,28c2,14,4,29,14,40
				c8,3,19-1,21-10c1-6-2-12-4-18c-6-13-6-28-3-42c9-1,19,1,28,1c-6,16-2,34,1,50c-2,6,0,12-2,18s-5,11-10,14
				C157.5,94.2,149.5,97.2,141.5,97.2L141.5,97.2z"/>
			<path class="st4" d="M141.5,97.2c-13,4-28-1-33-13c-12-24-14-52-8-78c7,2,13,2,20,2c-2,9-3,18-1,28c2,14,4,29,14,40
				c8,3,19-1,21-10c1-6-2-12-4-18c-6-13-6-28-3-42c9-1,19,1,28,1c-6,16-2,34,1,50c-2,6,0,12-2,18s-5,11-10,14
				C157.5,94.2,149.5,97.2,141.5,97.2L141.5,97.2z"/>
		</g>
		<g>
			<path class="st3" d="M214.5,70.2c4,11,18,10,26,3c2-2,3-5,2-8c-1-4-5-6-8-6c-14,1-32,7-43-5c-9-11-10-29,1-40c15-13,38-14,55-3
				c5,3,9,8,9,16c-9-1-17,2-25,4c0-5-5-7-9-8c-6-2-11,2-15,5c-1,2-2,5-2,7c0,4,4,6,8,6c15-3,34-8,45,7c5,8,7,16,5,25
				c-5,24-32,28-53,24c-13-3-20-14-23-26C196.5,73.2,205.5,72.2,214.5,70.2L214.5,70.2z"/>
			<path class="st4" d="M214.5,70.2c4,11,18,10,26,3c2-2,3-5,2-8c-1-4-5-6-8-6c-14,1-32,7-43-5c-9-11-10-29,1-40c15-13,38-14,55-3
				c5,3,9,8,9,16c-9-1-17,2-25,4c0-5-5-7-9-8c-6-2-11,2-15,5c-1,2-2,5-2,7c0,4,4,6,8,6c15-3,34-8,45,7c5,8,7,16,5,25
				c-5,24-32,28-53,24c-13-3-20-14-23-26C196.5,73.2,205.5,72.2,214.5,70.2L214.5,70.2z"/>
		</g>
		<g>
			<path class="st3" d="M287.5,30.2c-8,2-15,2-23,0c1-8,1-16,4-24c11,3,23,1,34,0c13-1,26,0,39,1c1,6-3,10-2,16c-10,0-19,0-29,2
				c2,16,8,30,11,46c1,8,2,16-1,23c-8,0-16,3-24,2c5-15,1-31-4-45C289.5,45.2,288.5,37.2,287.5,30.2L287.5,30.2z"/>
			<path class="st4" d="M287.5,30.2c-8,2-15,2-23,0c1-8,1-16,4-24c11,3,23,1,34,0c13-1,26,0,39,1c1,6-3,10-2,16c-10,0-19,0-29,2
				c2,16,8,30,11,46c1,8,2,16-1,23c-8,0-16,3-24,2c5-15,1-31-4-45C289.5,45.2,288.5,37.2,287.5,30.2L287.5,30.2z"/>
		</g>
	</g>
</g>
<g>
	<g>
		<g>
			<path class="st3" d="M390.5,64.2c1,5,3,11,8,12s9,0,13-3c2-2,3-6,2-9c-3-15-7-28-9-43c0-5,0-11,3-16c9,0,19,0,28,1
				c-7,18-1,36,1,55c1,9-2,17-7,24c-10,11-25,14-40,12c-14-2-24-16-24-30C373.5,69.2,382.5,66.2,390.5,64.2L390.5,64.2z"/>
			<path class="st4" d="M390.5,64.2c1,5,3,11,8,12s9,0,13-3c2-2,3-6,2-9c-3-15-7-28-9-43c0-5,0-11,3-16c9,0,19,0,28,1
				c-7,18-1,36,1,55c1,9-2,17-7,24c-10,11-25,14-40,12c-14-2-24-16-24-30C373.5,69.2,382.5,66.2,390.5,64.2L390.5,64.2z"/>
		</g>
		<g>
			<path class="st3" d="M491.5,4.2c1,8,5,16,9,23c6,10,13,18,18,28c6,13,7,26,9,40c-7-3-14-2-21-2c0-1,0-3,0-4c-2-5-2-10-3-15
				c-10,2-20,4-29,7c-3,2-2,8-4,11c-6,8-16,5-24,3c-2,0-5,0-7,0c5-7,10-15,13-23c7-21,2-43,12-63C473.5,6.2,482.5,6.2,491.5,4.2
				L491.5,4.2z M477.5,62.2c5-4,12-3,17-7c-5-5-8-11-13-16c-1-3-4-6-4-9c-1,2-2,5-2,7C476.5,45.2,475.5,54.2,477.5,62.2L477.5,62.2z
				"/>
			<path class="st4" d="M491.5,4.2c1,8,5,16,9,23c6,10,13,18,18,28c6,13,7,26,9,40c-7-3-14-2-21-2c0-1,0-3,0-4c-2-5-2-10-3-15
				c-10,2-20,4-29,7c-3,2-2,8-4,11c-6,8-16,5-24,3c-2,0-5,0-7,0c5-7,10-15,13-23c7-21,2-43,12-63C473.5,6.2,482.5,6.2,491.5,4.2
				L491.5,4.2z M477.5,62.2c5-4,12-3,17-7c-5-5-8-11-13-16c-1-3-4-6-4-9c-1,2-2,5-2,7C476.5,45.2,475.5,54.2,477.5,62.2L477.5,62.2z
				"/>
		</g>
		<g>
			<path class="st3" d="M603.5,29.2c3,9-1,19-8,25c10,11,16,25,18,40c-7-1-13,1-20,3c-3-12-8-24-16-33c-3,2-6,3-10,3c-1,0-3,1-3,2
				c1,9,3,19,0,28c-9-2-18,0-27-2c1-4,3-8,3-12c0-15-4-30-5-45c0-11-2-21,3-32c15,3,29-1,44,0C592.5,8.2,603.5,17.2,603.5,29.2
				L603.5,29.2z M558.5,51.2c8,0,18-4,21-12c2-6-3-14-10-14c-5,0-10,4-15,3C555.5,36.2,556.5,44.2,558.5,51.2L558.5,51.2z"/>
			<path class="st4" d="M603.5,29.2c3,9-1,19-8,25c10,11,16,25,18,40c-7-1-13,1-20,3c-3-12-8-24-16-33c-3,2-6,3-10,3c-1,0-3,1-3,2
				c1,9,3,19,0,28c-9-2-18,0-27-2c1-4,3-8,3-12c0-15-4-30-5-45c0-11-2-21,3-32c15,3,29-1,44,0C592.5,8.2,603.5,17.2,603.5,29.2
				L603.5,29.2z M558.5,51.2c8,0,18-4,21-12c2-6-3-14-10-14c-5,0-10,4-15,3C555.5,36.2,556.5,44.2,558.5,51.2L558.5,51.2z"/>
		</g>
		<g>
			<path class="st3" d="M645.5,68.2c0,8,7,10,13,10c5-1,10-1,13-5c2-3,4-7,1-11c-6-7-15-3-23-1c-11,3-22-1-29-11c-1-2-2-3-3-5
				c-3-10-3-21,5-29c13-15,35-15,52-9c1,1,3,2,5,3s3,2,4,4s1,3,3,5c1,2,2,6,1,6c-7,4-17,1-24,5c-5-10-17-8-25-3c-3,2-3,6-1,9
				s6,4,9,4c8-1,15-3,23-3c12,1,23,10,25,23s-3,27-15,32c-14,5-29,9-43,3c-6-3-11-7-14-13c-1-2-1-5-3-7c0-1,0-3,0-4
				C628.5,71.2,637.5,71.2,645.5,68.2L645.5,68.2z"/>
			<path class="st4" d="M645.5,68.2c0,8,7,10,13,10c5-1,10-1,13-5c2-3,4-7,1-11c-6-7-15-3-23-1c-11,3-22-1-29-11c-1-2-2-3-3-5
				c-3-10-3-21,5-29c13-15,35-15,52-9c1,1,3,2,5,3s3,2,4,4s1,3,3,5c1,2,2,6,1,6c-7,4-17,1-24,5c-5-10-17-8-25-3c-3,2-3,6-1,9
				s6,4,9,4c8-1,15-3,23-3c12,1,23,10,25,23s-3,27-15,32c-14,5-29,9-43,3c-6-3-11-7-14-13c-1-2-1-5-3-7c0-1,0-3,0-4
				C628.5,71.2,637.5,71.2,645.5,68.2L645.5,68.2z"/>
		</g>
	</g>
</g>
</svg>
