<?xml version="1.0" encoding="utf-8"?>
<!-- Generator: Adobe Illustrator 22.1.0, SVG Export Plug-In . SVG Version: 6.00 Build 0)  -->
<svg version="1.1" id="Layer_1" xmlns="http://www.w3.org/2000/svg" xmlns:xlink="http://www.w3.org/1999/xlink" x="0px" y="0px"
	 viewBox="0 0 71.6 103" style="enable-background:new 0 0 71.6 103;" xml:space="preserve">
<style type="text/css">
	.st0{fill:#FFFF00;}
	.st1{fill:#231F20;}
	.st2{fill:#F6EB0F;}
	.st3{fill:#FFFF22;}
	.st4{fill:none;stroke:#000000;stroke-width:2;}
	.st5{fill:#FF4545;stroke:#000000;stroke-width:2;}
	.st6{fill:#8BFF48;stroke:#000000;stroke-width:2;}
	.st7{fill:#F090D8;stroke:#000000;stroke-width:2;}
	.st8{fill:#94A7F9;stroke:#000000;stroke-width:2;}
	.st9{fill:#FFFF22;stroke:#000000;stroke-width:2;}
	.st10{fill:#4C1A57;}
	.st11{fill:#67E2E6;}
	.st12{fill:#F2F551;}
	.st13{fill:#97EA82;}
	.st14{fill:#EB52C2;}
	.st15{fill:#CE4FED;}
	.st16{fill:#444344;}
	.st17{fill:#FF293E;}
	.st18{fill:#F090D8;}
	.st19{fill:#1711F4;}
	.st20{fill:none;stroke:#000000;stroke-width:2;stroke-miterlimit:10;}
	.st21{fill:#EAEAEA;stroke:#000000;stroke-width:2;stroke-linecap:round;stroke-linejoin:round;}
	.st22{fill:#BABABA;stroke:#000000;stroke-width:2;stroke-linecap:round;stroke-linejoin:round;}
	.st23{fill:#C0FF97;stroke:#000000;stroke-width:2;}
	.st24{fill:#16B200;}
	.st25{fill:#E6FFFF;stroke:#000000;stroke-width:2;stroke-linecap:round;stroke-linejoin:round;}
	.st26{fill:#F2C7EA;stroke:#000000;stroke-width:2;}
	.st27{fill:#9B9B9B;stroke:#000000;stroke-width:2;stroke-linecap:round;stroke-linejoin:round;}
	.st28{fill:#30CC1F;stroke:#000000;stroke-width:2;}
	.st29{fill:#FFFFFF;stroke:#000000;stroke-width:2;}
	.st30{fill:#EA4DF7;stroke:#000000;stroke-width:2;}
	.st31{fill:#9800A8;stroke:#000000;stroke-width:2;}
	.st32{fill:#FFD524;stroke:#000000;stroke-width:2;}
	.st33{fill:#C68A12;stroke:#000000;stroke-width:2;}
	.st34{fill:#FF4545;stroke:#000000;stroke-width:10;stroke-linecap:round;}
	.st35{fill:#E2B574;}
	.st36{fill:#E2E2E2;}
	.st37{fill:#1DFF1D;}
	.st38{fill:none;stroke:#1DFF1D;stroke-width:3;stroke-miterlimit:10;}
	.st39{fill:#FFFFFF;}
</style>
<path class="st25" d="M66.9,98.1H4.8V35.8c0-8.2,6.6-14.8,14.8-14.8h32.5c8.2,0,14.8,6.6,14.8,14.8V98.1z"/>
<rect x="10.6" y="16.8" class="st22" width="50.5" height="4.1"/>
<g>
	<path class="st23" d="M53.2,37.1c-1.8-0.9-3.1-2.7-4.8-3.9c-3.4-2.5-7.9-2-11.4,0.4c-2.6,1.8-4.7,4.6-7.5,6.1
		c-2.9,1.6-6.3,1.5-9.1-0.1c-1.7-1-3.1-2.4-4.9-3.3c-3.3-1.6-7.1-0.5-10.5,0.7c-0.2,0.1-0.3,0.1-0.5,0.2v60.6h62.2V33.7
		c-0.5,0.2-1.1,0.4-1.6,0.6C61.3,36.1,57.1,39.1,53.2,37.1z"/>
</g>
<path class="st22" d="M63.1,16.8H8.6V8.5c0-2.7,2.1-4.8,4.8-4.8h44.9c2.7,0,4.8,2.1,4.8,4.8V16.8z"/>
<path class="st6" d="M44.1,95.4c-14.2,0-26.8-5.9-34.3-16.2c-1.9-2.6-1.4-6.3,1-8.3c2.4-2,5.9-1.5,7.8,1.1
	c5.7,7.9,16.1,12.2,27.7,11.5c3.1-0.2,5.7,2.3,5.8,5.6c0.2,3.2-2.2,6-5.3,6.2C45.9,95.4,45,95.4,44.1,95.4z"/>
<circle class="st24" cx="23.9" cy="81.1" r="1.8"/>
<circle class="st24" cx="27.2" cy="88" r="1.8"/>
<circle class="st24" cx="33.7" cy="86.2" r="1.8"/>
<circle class="st24" cx="42.6" cy="85.8" r="1.8"/>
<circle class="st24" cx="40.2" cy="91.9" r="1.8"/>
<circle class="st24" cx="48.5" cy="92.5" r="1.8"/>
<circle class="st24" cx="18.4" cy="82.9" r="1.8"/>
<circle class="st24" cx="18" cy="76.4" r="1.8"/>
<circle class="st24" cx="11.8" cy="75.6" r="1.8"/>
<path class="st6" d="M17.9,42.9c10,5.9,16.4,15.4,17.4,25.7c0.2,2.6-1.6,5-4.2,5.4c-2.5,0.4-4.8-1.4-5.1-4
	c-0.7-7.9-6.2-15.3-14.7-19.7c-2.2-1.2-3-4-1.8-6.4c1.2-2.4,4.1-3.3,6.3-2.2C16.6,42.2,17.3,42.5,17.9,42.9z"/>
<circle class="st24" cx="26.1" cy="61.4" r="1.4"/>
<circle class="st24" cx="26.7" cy="55.2" r="1.4"/>
<circle class="st24" cx="21.4" cy="53.7" r="1.4"/>
<circle class="st24" cx="14.9" cy="50.3" r="1.4"/>
<circle class="st24" cx="19.2" cy="47" r="1.4"/>
<circle class="st24" cx="13.5" cy="43.1" r="1.4"/>
<circle class="st24" cx="30.8" cy="62.4" r="1.4"/>
<circle class="st24" cx="28.3" cy="67.2" r="1.4"/>
<circle class="st24" cx="32.4" cy="70.3" r="1.4"/>
<path class="st6" d="M53.8,81.3c-9-8.4-13.5-19.6-12.2-30.5c0.3-2.7,2.8-4.8,5.5-4.6c2.7,0.2,4.6,2.5,4.3,5.3
	c-1,8.3,3,17.2,10.7,23.6c2,1.7,2.2,4.8,0.4,7c-1.8,2.1-4.9,2.5-7,0.8C54.9,82.4,54.3,81.9,53.8,81.3z"/>
<circle class="st24" cx="49.4" cy="60.4" r="1.5"/>
<circle class="st24" cx="47.5" cy="66.7" r="1.5"/>
<circle class="st24" cx="52.6" cy="69.4" r="1.5"/>
<circle class="st24" cx="58.5" cy="74.4" r="1.5"/>
<circle class="st24" cx="53.4" cy="76.8" r="1.5"/>
<circle class="st24" cx="57.8" cy="82.1" r="1.5"/>
<circle class="st24" cx="48.5" cy="53.9" r="1.5"/>
<circle class="st24" cx="45" cy="49.8" r="1.5"/>
<path class="st25" d="M66.8,98H4.7V35.7c0-8.2,6.6-14.9,14.9-14.9H52c8.2,0,14.9,6.6,14.9,14.9V98z"/>
<g>
	<path class="st5" d="M53.3,37.3c-1.8-0.9-3.1-2.7-4.8-3.9c-3.4-2.5-7.9-2-11.4,0.4c-2.6,1.8-4.7,4.6-7.5,6.2
		c-2.9,1.6-6.3,1.5-9.1-0.1c-1.7-1-3.1-2.4-4.9-3.3c-3.3-1.6-7.1-0.5-10.5,0.7c-0.2,0.1-0.3,0.1-0.5,0.2v60.6h62.2V33.9
		c-0.5,0.2-1.1,0.4-1.6,0.6C61.3,36.3,57.1,39.3,53.3,37.3z"/>
</g>
<rect x="10.5" y="16.7" class="st22" width="50.5" height="4.1"/>
<path class="st22" d="M63,16.7H8.5V8.4c0-2.7,2.2-4.8,4.8-4.8h44.9c2.7,0,4.8,2.2,4.8,4.8V16.7z"/>
<path class="st6" d="M45.9,43c0,0-10.1,21.8,14.3,26.1C60.2,69.1,68,49.9,45.9,43z"/>
<line class="st6" x1="60.2" y1="69.1" x2="45.9" y2="43"/>
<line class="st6" x1="48.7" y1="48.2" x2="45" y2="58.9"/>
<line class="st6" x1="53.8" y1="57.4" x2="51.2" y2="65.6"/>
<line class="st6" x1="51.7" y1="53.6" x2="59.8" y2="53.6"/>
<line class="st6" x1="56.6" y1="62.4" x2="61.5" y2="62.9"/>
<path class="st6" d="M45.7,72.8c0,0-21.2-0.5-16.1,20.8C29.6,93.6,47.9,93.1,45.7,72.8z"/>
<line class="st6" x1="29.6" y1="93.6" x2="45.7" y2="72.8"/>
<line class="st6" x1="42.5" y1="76.9" x2="32.5" y2="77.6"/>
<line class="st6" x1="36.8" y1="84.3" x2="29.3" y2="85.1"/>
<line class="st6" x1="39.2" y1="81.2" x2="42.1" y2="87.8"/>
<line class="st6" x1="33.7" y1="88.3" x2="35.1" y2="92.5"/>
<path class="st6" d="M30.6,67.3c0,0,0.5-21.2-20.8-16.1C9.8,51.2,10.3,69.5,30.6,67.3z"/>
<line class="st6" x1="9.8" y1="51.2" x2="30.6" y2="67.3"/>
<line class="st6" x1="26.4" y1="64.1" x2="25.8" y2="54"/>
<line class="st6" x1="19.1" y1="58.4" x2="18.3" y2="50.8"/>
<line class="st6" x1="22.2" y1="60.8" x2="15.6" y2="63.6"/>
<line class="st6" x1="15.1" y1="55.3" x2="10.9" y2="56.6"/>
</svg>
